PathFileType	4	(X/Y/Z)	s05c0102.trc
DataRate	CameraRate	NumFrames	NumMarkers	Units	OrigDataRate	OrigDataStartFrame	OrigNumFrames
200	200	4	50	mm	200	750	2000
Frame#	Time	racr			lacr			c7			jug			rlel			rdr			llel			ldr			s2			lic			ric			lasi			rasi			rpsi			lpsi			rgt			lgt			rth1			rth2			rth3			rth4			rlfc			rmfc			rsh1			rsh2			rsh3			rsh4			rlmal			rmmal			rcal			rtoe			rmt5			lth1			lth2			lth4			lth3			llfc			lmfc			lsh1			lsh2			lsh3			lsh4			llmal			lmmal			lcal			ltoe			lmt5			SBIKE			LBIKE			RBIKE			
		X1	Y1	Z1	X2	Y2	Z2	X3	Y3	Z3	X4	Y4	Z4	X5	Y5	Z5	X6	Y6	Z6	X7	Y7	Z7	X8	Y8	Z8	X9	Y9	Z9	X10	Y10	Z10	X11	Y11	Z11	X12	Y12	Z12	X13	Y13	Z13	X14	Y14	Z14	X15	Y15	Z15	X16	Y16	Z16	X17	Y17	Z17	X18	Y18	Z18	X19	Y19	Z19	X20	Y20	Z20	X21	Y21	Z21	X22	Y22	Z22	X23	Y23	Z23	X24	Y24	Z24	X25	Y25	Z25	X26	Y26	Z26	X27	Y27	Z27	X28	Y28	Z28	X29	Y29	Z29	X30	Y30	Z30	X31	Y31	Z31	X32	Y32	Z32	X33	Y33	Z33	X34	Y34	Z34	X35	Y35	Z35	X36	Y36	Z36	X37	Y37	Z37	X38	Y38	Z38	X39	Y39	Z39	X40	Y40	Z40	X41	Y41	Z41	X42	Y42	Z42	X43	Y43	Z43	X44	Y44	Z44	X45	Y45	Z45	X46	Y46	Z46	X47	Y47	Z47	X48	Y48	Z48	X49	Y49	Z49	X50	Y50	Z50	
750	3.7500	439.396589	1309.856798	-170.603381	445.959091	1297.672150	-423.289969	418.464476	1379.713432	-312.464802	376.870483	1219.949420	-296.040901	475.826597	1073.989127	-36.524961	685.399236	940.037538	-97.975741	465.030898	1049.839549	-578.860297	683.580533	919.425962	-489.970832	-127.101732	1178.047980	-284.241746	12.185111	1177.469318	-434.186258	20.082264	1211.114264	-151.078782	59.968544	1124.060355	-396.789825	70.312428	1150.900443	-176.007430	-91.889614	1229.240736	-250.299628	-93.572268	1225.723835	-336.337474	-5.650291	1084.436459	-115.129859	-48.820552	1078.805913	-452.251205	96.948859	1013.619899	-111.893956	181.464033	985.057555	-115.785566	237.389684	917.440353	-124.312796	200.247656	1014.287670	-128.977757	356.067271	826.001261	-157.248027	332.733481	814.787261	-265.230323	307.558072	728.381266	-121.089885	307.617296	639.763850	-128.369012	268.338943	563.821868	-124.415834	335.610179	634.659965	-155.162551	236.597224	434.048477	-121.508920	243.979452	458.302232	-203.472185	166.554904	394.083385	-161.503376	463.711442	394.294683	-160.326830	364.597112	366.737133	-93.729611	56.346634	981.009568	-460.926326	134.191279	944.886980	-454.695703	157.154403	969.887751	-439.226573	184.661468	869.919885	-455.594998	273.091044	747.956964	-429.200778	253.720366	735.459538	-320.405151	184.575594	655.436251	-457.399091	146.024990	578.448170	-443.782416	72.135295	528.688841	-444.015554	169.219314	561.140986	-418.488544	-3.611789	435.366161	-438.747288	34.166129	445.051215	-363.027564	-73.744309	437.164883	-392.256958	145.738338	239.186490	-403.820638	42.913230	284.999133	-462.034525	-220.274661	910.587675	-275.673138	-53.579567	79.058161	-475.175719	-53.568857	79.327417	-77.341878	
751	3.7550	439.909130	1310.550607	-170.616822	445.964416	1298.282478	-423.271613	418.638725	1380.231089	-312.488736	376.948463	1220.636649	-295.911021	476.396037	1074.752199	-36.402066	685.507793	940.160438	-97.932031	465.085214	1050.391442	-578.208437	683.425807	919.212229	-489.649473	-126.676504	1178.227837	-283.292156	12.085587	1178.255402	-433.631091	20.703061	1211.016522	-150.455512	59.939578	1124.758247	-396.320781	71.109833	1150.916485	-175.555758	-91.436961	1229.307632	-249.272493	-93.385607	1226.340291	-335.544289	-4.981280	1083.696973	-114.742133	-48.517328	1079.820326	-451.935292	97.106498	1011.476781	-111.577962	181.076113	981.467039	-115.531383	235.811382	912.950723	-124.262434	200.355709	1010.437688	-128.571540	353.563833	820.057297	-157.623785	329.732515	809.247962	-264.848370	306.108047	722.424457	-120.776489	307.296455	633.923718	-128.011749	268.924977	557.472041	-124.149219	335.048319	628.772500	-154.924716	238.600215	427.155958	-121.331106	245.805807	451.442417	-203.236884	168.567632	387.465836	-161.314840	465.718043	386.373261	-160.334869	366.492757	359.392829	-93.737651	57.662986	983.109135	-460.711257	135.879826	947.840868	-454.642302	158.526217	973.026519	-439.172818	187.115467	873.422987	-455.611116	276.617770	752.104324	-429.565129	257.790035	739.563741	-321.481654	187.301195	660.674786	-457.677926	147.803322	584.142374	-444.083209	73.316694	535.267220	-444.304471	170.810292	566.546855	-418.764282	-3.651675	443.026773	-438.928004	34.300911	452.471936	-363.212626	-73.917453	445.577532	-392.694957	144.097280	245.852993	-403.855058	41.549952	292.361088	-462.144998	-220.236729	910.626805	-275.626866	-53.565041	79.074210	-475.165163	-53.518228	79.160315	-77.488281	
752	3.7600	440.369308	1311.391368	-170.672593	445.712741	1298.976790	-423.039704	418.808554	1380.785434	-312.517232	377.015121	1221.208138	-295.660494	476.937599	1075.511958	-36.229714	685.629124	940.264127	-97.922683	465.154209	1050.932975	-577.565366	683.429429	919.242028	-489.495840	-126.217466	1178.342148	-282.392911	11.991284	1179.011225	-432.983297	21.239208	1211.036610	-149.788873	60.343371	1126.163616	-396.567045	71.856177	1150.788882	-175.020193	-90.921471	1229.252601	-248.223296	-93.335795	1226.698827	-334.597388	-4.489124	1082.924001	-114.377970	-48.195806	1080.788292	-451.583698	97.147622	1009.306765	-111.260417	180.527705	977.806598	-115.311096	234.118996	908.404768	-124.170558	200.360084	1006.473782	-128.168099	350.802555	814.750240	-157.063674	327.028184	803.812834	-264.960872	304.222629	716.454858	-120.074440	306.726634	627.986112	-127.705371	269.156508	551.159427	-123.838391	334.015815	623.467365	-154.834892	240.337991	420.337679	-121.108324	247.499140	445.195956	-202.832766	170.290050	380.970738	-161.061583	467.452104	378.397148	-160.439820	368.198031	351.842471	-93.768458	58.963213	985.078426	-460.610228	137.637829	950.729318	-454.655647	160.071944	976.156009	-439.251352	189.900098	877.104896	-456.214106	280.340642	756.599192	-430.043406	261.668890	743.893949	-321.923337	190.278955	666.036782	-457.932461	149.582130	589.870927	-443.769959	74.848966	541.992058	-444.483711	172.883247	572.334251	-419.243712	-3.298387	450.644973	-439.146133	34.747920	459.927367	-363.320546	-73.677948	454.001881	-392.740573	142.742672	252.469587	-403.910880	40.568484	299.763825	-462.160521	-220.181434	910.663169	-275.577074	-53.548931	79.110803	-475.161113	-53.518797	79.169666	-77.487839	
753	3.7650	440.844652	1312.118049	-170.571168	445.577193	1299.659450	-422.812477	418.993667	1381.435151	-312.430977	377.178994	1221.862916	-295.437345	477.578289	1076.198863	-35.964088	685.738617	940.380194	-97.883833	465.226509	1051.496718	-576.872078	683.437637	919.294841	-489.321515	-125.832390	1178.432764	-281.454056	11.942891	1179.602186	-432.290366	21.934318	1210.802320	-149.029312	60.494089	1126.668277	-396.117726	72.679437	1150.530928	-174.411701	-90.407656	1229.194845	-247.187524	-93.150484	1226.870806	-333.399034	-3.885048	1081.881806	-113.937321	-47.835259	1081.658050	-451.196721	97.078521	1007.083057	-110.880231	179.890905	974.249257	-114.967779	232.222788	903.855135	-124.079972	200.217472	1002.479430	-127.738287	347.931876	809.207739	-156.658623	326.558431	798.486677	-265.071538	302.487377	710.473769	-119.531228	305.910002	622.194839	-126.786231	269.159687	544.732725	-123.427060	333.049185	617.723784	-154.640876	241.865063	413.553430	-120.938678	248.838911	437.462831	-202.832830	171.710363	374.473472	-160.823705	468.901346	370.223353	-160.472641	369.521006	344.396917	-93.755539	60.250997	986.932744	-460.604451	139.334601	953.589444	-454.765950	161.458723	979.285642	-439.506023	192.564839	880.679045	-456.509730	284.152034	761.156322	-430.572131	264.845681	747.862643	-321.805917	193.303261	671.533740	-457.855319	151.936138	595.893150	-443.952503	76.649118	548.865402	-444.606463	175.089648	577.934067	-419.470566	-2.668246	458.492620	-439.205386	35.539208	467.374485	-363.365879	-73.110812	462.430208	-392.708967	141.775036	259.167268	-403.888981	39.922657	307.382426	-462.169850	-220.151497	910.679826	-275.526733	-53.543958	79.142018	-475.146297	-53.510198	79.151192	-77.480477	
